<?xml version="1.0" encoding="UTF-8" standalone="no"?><!DOCTYPE svg PUBLIC "-//W3C//DTD SVG 1.1//EN" "http://www.w3.org/Graphics/SVG/1.1/DTD/svg11.dtd"><svg width="100%" height="100%" viewBox="0 0 406 406" version="1.1" xmlns="http://www.w3.org/2000/svg" xmlns:xlink="http://www.w3.org/1999/xlink" xml:space="preserve" xmlns:serif="http://www.serif.com/" style="fill-rule:evenodd;clip-rule:evenodd;stroke-linejoin:round;stroke-miterlimit:2;"><g transform="matrix(35.664466,0,0,35.664466,-26774.12103,-23015.23829)"><path d="M760.82,650.499c0,-1.296 -0.412,-2.356 -1.236,-3.18c-0.832,-0.816 -1.892,-1.224 -3.18,-1.224c-1.296,0 -2.356,0.412 -3.18,1.236c-0.816,0.816 -1.224,1.872 -1.224,3.168c0,1.296 0.412,2.356 1.236,3.18c0.816,0.816 1.872,1.224 3.168,1.224c1.296,0 2.356,-0.412 3.18,-1.236c0.824,-0.816 1.236,-1.872 1.236,-3.168Zm-0.492,0c0,1.16 -0.364,2.104 -1.092,2.832c-0.736,0.72 -1.68,1.08 -2.832,1.08c-1.144,0 -2.084,-0.368 -2.82,-1.104c-0.728,-0.728 -1.092,-1.664 -1.092,-2.808c0,-1.144 0.368,-2.084 1.104,-2.82c0.72,-0.736 1.656,-1.104 2.808,-1.104c1.152,0 2.096,0.368 2.832,1.104c0.728,0.728 1.092,1.668 1.092,2.82Zm-1.38,5.436l0,-0.492l-2.532,0l0,0.492l2.532,0Z" style="fill:#ff3e00;fill-rule:nonzero;"/></g></svg>