<?xml version="1.0" encoding="UTF-8" standalone="no"?><!DOCTYPE svg PUBLIC "-//W3C//DTD SVG 1.1//EN" "http://www.w3.org/Graphics/SVG/1.1/DTD/svg11.dtd"><svg width="100%" height="100%" viewBox="0 0 406 125" version="1.1" xmlns="http://www.w3.org/2000/svg" xmlns:xlink="http://www.w3.org/1999/xlink" xml:space="preserve" xmlns:serif="http://www.serif.com/" style="fill-rule:evenodd;clip-rule:evenodd;stroke-linejoin:round;stroke-miterlimit:2;"><g transform="matrix(1,0,0,1,0,-140.396297)"><g transform="matrix(12.450898,0,0,12.450898,-9363.079429,-7901.671032)"><g transform="matrix(12,0,0,12,751.304348,654.782609)"><path d="M0.793,-0.357c0,-0.108 -0.034,-0.196 -0.103,-0.265c-0.069,-0.068 -0.158,-0.102 -0.265,-0.102c-0.108,0 -0.196,0.034 -0.265,0.103c-0.068,0.068 -0.102,0.156 -0.102,0.264c0,0.108 0.034,0.196 0.103,0.265c0.068,0.068 0.156,0.102 0.264,0.102c0.108,0 0.196,-0.034 0.265,-0.103c0.069,-0.068 0.103,-0.156 0.103,-0.264Zm-0.041,0c0,0.097 -0.03,0.175 -0.091,0.236c-0.061,0.06 -0.14,0.09 -0.236,0.09c-0.095,0 -0.174,-0.031 -0.235,-0.092c-0.061,-0.061 -0.091,-0.139 -0.091,-0.234c0,-0.095 0.031,-0.174 0.092,-0.235c0.06,-0.061 0.138,-0.092 0.234,-0.092c0.096,0 0.175,0.031 0.236,0.092c0.061,0.061 0.091,0.139 0.091,0.235Zm-0.115,0.453l0,-0.041l-0.211,0l0,0.041l0.211,0Z" style="fill:#ff3e00;fill-rule:nonzero;"/></g><g transform="matrix(12,0,0,12,761.168348,654.782609)"><path d="M0.369,-0.155l0,-0.258l-0.04,0l0,0.258c0,0.082 -0.038,0.123 -0.115,0.123c-0.039,0 -0.068,-0.011 -0.086,-0.032c-0.017,-0.021 -0.026,-0.052 -0.026,-0.091l0,-0.258l-0.041,0l0,0.258c0,0.051 0.013,0.091 0.04,0.12c0.027,0.029 0.064,0.043 0.113,0.043c0.049,0 0.088,-0.015 0.115,-0.044c0.027,-0.029 0.04,-0.068 0.04,-0.119Z" style="fill:#ff3e00;fill-rule:nonzero;"/></g><g transform="matrix(12,0,0,12,765.764348,654.782609)"><path d="M0.127,-0.52c-0.005,-0.022 -0.016,-0.033 -0.033,-0.033c-0.022,0.004 -0.033,0.015 -0.033,0.033c0,0.01 0.003,0.018 0.009,0.024c0.008,0.006 0.016,0.009 0.023,0.009c0.022,0 0.034,-0.011 0.034,-0.033Zm-0.013,0.52l0,-0.413l-0.041,0l0,0.413l0.041,-0Z" style="fill:#ff3e00;fill-rule:nonzero;"/></g><g transform="matrix(12,0,0,12,767.360348,654.782609)"><path d="M0.424,-0.413l-0.361,0l0,0.039l0.278,0l-0.295,0.374l0.373,-0l0,-0.041l-0.288,0l0.293,-0.372Z" style="fill:#ff3e00;fill-rule:nonzero;"/></g><g transform="matrix(12,0,0,12,772.844348,654.782609)"><path d="M0.478,-0.206c0,-0.06 -0.021,-0.111 -0.062,-0.152c-0.041,-0.041 -0.091,-0.061 -0.151,-0.061c-0.069,0 -0.126,0.028 -0.169,0.083l0,-0.404l-0.041,0l0,0.74l0.041,-0l0,-0.076c0.044,0.055 0.1,0.083 0.169,0.083c0.06,-0 0.111,-0.021 0.152,-0.062c0.041,-0.041 0.061,-0.091 0.061,-0.151Zm-0.04,0c0,0.048 -0.017,0.089 -0.051,0.123c-0.033,0.033 -0.074,0.05 -0.122,0.05c-0.047,0 -0.088,-0.017 -0.122,-0.051c-0.034,-0.034 -0.051,-0.075 -0.051,-0.122c0,-0.048 0.017,-0.089 0.051,-0.123c0.033,-0.033 0.074,-0.05 0.122,-0.05c0.047,0 0.088,0.017 0.122,0.051c0.034,0.034 0.051,0.075 0.051,0.122Z" style="fill:#ff3e00;fill-rule:nonzero;"/></g><g transform="matrix(12,0,0,12,779.048348,654.782609)"><path d="M0.461,-0.215c0,-0.061 -0.02,-0.11 -0.061,-0.148c-0.04,-0.038 -0.091,-0.057 -0.152,-0.057c-0.062,0 -0.113,0.02 -0.154,0.061c-0.04,0.04 -0.06,0.091 -0.06,0.153c0,0.061 0.02,0.112 0.061,0.153c0.04,0.041 0.091,0.061 0.153,0.061c0.026,0 0.049,-0.003 0.07,-0.01c0.054,-0.017 0.094,-0.051 0.12,-0.1l-0.037,-0.017c-0.023,0.037 -0.048,0.061 -0.077,0.073c-0.023,0.009 -0.048,0.014 -0.076,0.014c-0.055,0 -0.098,-0.017 -0.129,-0.05c-0.03,-0.033 -0.045,-0.077 -0.045,-0.133l0.387,0Zm-0.046,-0.039l-0.335,0c0.027,-0.084 0.083,-0.126 0.168,-0.126c0.041,-0 0.077,0.011 0.108,0.034c0.033,0.023 0.052,0.054 0.059,0.092Z" style="fill:#ff3e00;fill-rule:nonzero;"/></g></g></g></svg>
