<?xml version="1.0" encoding="UTF-8" standalone="no"?>
<!DOCTYPE svg PUBLIC "-//W3C//DTD SVG 1.1//EN" "http://www.w3.org/Graphics/SVG/1.1/DTD/svg11.dtd">
<svg width="100%" height="100%" viewBox="0 0 488 136" version="1.1" xmlns="http://www.w3.org/2000/svg" xmlns:xlink="http://www.w3.org/1999/xlink" xml:space="preserve" xmlns:serif="http://www.serif.com/" style="fill-rule:evenodd;clip-rule:evenodd;stroke-linejoin:round;stroke-miterlimit:2;">
    <g transform="matrix(1,0,0,1,-2.851479,-192.991899)">
        <g transform="matrix(2.970414,0,0,2.970414,-733.167653,-583.672401)">
            <path d="M278.933,306.267C276.533,306.733 274.492,307.025 272.808,307.142C271.125,307.258 269.625,307.258 268.308,307.142C266.992,307.025 265.708,306.842 264.458,306.592C263.208,306.342 261.85,306.092 260.383,305.842C258.917,305.592 257.2,305.4 255.233,305.267C253.267,305.133 250.867,305.133 248.033,305.267L248.033,299.367L251.458,299.367C252.775,299.367 254.167,299.308 255.633,299.192C257.1,299.075 258.55,298.917 259.983,298.717C261.417,298.517 262.75,298.25 263.983,297.917C265.217,297.583 266.25,297.183 267.083,296.717L267.083,296.067C264.45,296.8 262.1,297.167 260.033,297.167C257.967,297.167 256.158,296.791 254.608,296.039C253.058,295.286 251.783,294.233 250.783,292.878C249.783,291.524 249.033,289.936 248.533,288.114C248.033,286.291 247.783,284.293 247.783,282.12C247.783,279.645 248.117,277.372 248.783,275.299C249.45,273.226 250.442,271.42 251.758,269.882C253.075,268.344 254.717,267.14 256.683,266.271C258.65,265.401 260.933,264.967 263.533,264.967C266.8,264.967 269.583,265.65 271.883,267.017C274.183,268.383 275.958,270.333 277.208,272.867C278.458,275.4 279.083,278.45 279.083,282.017C279.083,285.117 278.658,287.725 277.808,289.842C276.958,291.958 275.758,293.7 274.208,295.067C272.658,296.433 270.808,297.517 268.658,298.317C266.508,299.117 264.133,299.717 261.533,300.117L261.533,300.817C263.333,300.996 264.958,301.158 266.408,301.301C267.858,301.445 269.25,301.517 270.583,301.517C271.917,301.517 273.25,301.433 274.583,301.267C275.917,301.1 277.367,300.817 278.933,300.417L278.933,306.267ZM263.583,293.667C265.45,293.667 266.992,293.25 268.208,292.417C269.425,291.583 270.333,290.333 270.933,288.667C271.533,287 271.833,284.933 271.833,282.467C271.833,279.933 271.517,277.808 270.883,276.092C270.25,274.375 269.3,273.067 268.033,272.167C266.767,271.267 265.2,270.817 263.333,270.817C261.533,270.817 260.017,271.25 258.783,272.117C257.55,272.983 256.625,274.267 256.008,275.967C255.392,277.667 255.083,279.767 255.083,282.267C255.083,284.8 255.4,286.908 256.033,288.592C256.667,290.275 257.625,291.542 258.908,292.392C260.192,293.242 261.75,293.667 263.583,293.667Z"/>
        </g>
        <g transform="matrix(2.970414,0,0,2.970414,-733.167653,-583.672401)">
            <path d="M293.833,299.367C290.767,299.367 288.458,298.325 286.908,296.242C285.358,294.158 284.583,290.983 284.583,286.717L284.583,272.417L291.783,272.417L291.783,285.817C291.783,288.383 292.167,290.292 292.933,291.542C293.7,292.792 294.867,293.417 296.433,293.417C297.367,293.417 298.183,293.183 298.883,292.717C299.583,292.25 300.183,291.6 300.683,290.767C301.183,289.933 301.558,288.95 301.808,287.817C302.058,286.683 302.183,285.467 302.183,284.167L302.183,272.417L309.433,272.417L309.433,298.667L303.583,298.667L303.583,290.467L302.683,290.467C302.183,292.533 301.558,294.225 300.808,295.542C300.058,296.858 299.108,297.825 297.958,298.442C296.808,299.058 295.433,299.367 293.833,299.367Z" style="fill-rule:nonzero;"/>
        </g>
        <g transform="matrix(2.970414,0,0,2.970414,-733.167653,-583.672401)">
            <path d="M316.033,298.667L316.033,272.417L323.233,272.417L323.233,298.667L316.033,298.667ZM319.683,268.467C318.283,268.467 317.208,268.175 316.458,267.592C315.708,267.008 315.333,266.15 315.333,265.017C315.333,263.85 315.708,262.967 316.458,262.367C317.208,261.767 318.283,261.467 319.683,261.467C321.117,261.467 322.208,261.767 322.958,262.367C323.708,262.967 324.083,263.85 324.083,265.017C324.083,266.117 323.708,266.967 322.958,267.567C322.208,268.167 321.117,268.467 319.683,268.467Z" style="fill-rule:nonzero;"/>
        </g>
        <g transform="matrix(2.970414,0,0,2.970414,-733.167653,-583.672401)">
            <path d="M328.283,298.667L328.283,292.617L341.833,278.867L341.833,278.167L328.533,278.167L328.533,272.417L350.983,272.417L350.983,278.367L337.333,292.167L337.333,292.867L351.083,292.867L351.083,298.667L328.283,298.667Z" style="fill-rule:nonzero;"/>
        </g>
        <g transform="matrix(2.970414,0,0,2.970414,-733.167653,-583.672401)">
            <path d="M371.983,299.367C370.317,299.367 368.867,299.042 367.633,298.392C366.4,297.742 365.4,296.8 364.633,295.567C363.867,294.333 363.333,292.833 363.033,291.067L362.033,291.067L362.033,298.667L356.083,298.667L356.083,262.917L363.283,262.917L363.283,271.517C363.283,272.317 363.233,273.175 363.133,274.092C363.033,275.008 362.892,275.95 362.708,276.917C362.525,277.883 362.333,278.883 362.133,279.917L363.233,279.917C363.667,278.25 364.258,276.808 365.008,275.592C365.758,274.375 366.717,273.442 367.883,272.792C369.05,272.142 370.433,271.817 372.033,271.817C374.233,271.817 376.133,272.383 377.733,273.517C379.333,274.65 380.575,276.25 381.458,278.317C382.342,280.383 382.783,282.833 382.783,285.667C382.783,288.433 382.35,290.842 381.483,292.892C380.617,294.942 379.375,296.533 377.758,297.667C376.142,298.8 374.217,299.367 371.983,299.367ZM369.433,293.467C370.633,293.467 371.667,293.142 372.533,292.492C373.4,291.842 374.067,290.917 374.533,289.717C375,288.517 375.233,287.117 375.233,285.517C375.233,283.917 375.008,282.533 374.558,281.367C374.108,280.2 373.467,279.283 372.633,278.617C371.8,277.95 370.783,277.617 369.583,277.617C368.783,277.617 368.05,277.767 367.383,278.067C366.717,278.367 366.133,278.775 365.633,279.292C365.133,279.808 364.7,280.392 364.333,281.042C363.967,281.692 363.7,282.367 363.533,283.067C363.367,283.767 363.283,284.433 363.283,285.067L363.283,286.017C363.283,286.783 363.4,287.608 363.633,288.492C363.867,289.375 364.242,290.192 364.758,290.942C365.275,291.692 365.917,292.3 366.683,292.767C367.45,293.233 368.367,293.467 369.433,293.467Z" style="fill-rule:nonzero;"/>
        </g>
        <g transform="matrix(2.970414,0,0,2.970414,-733.167653,-583.672401)">
            <path d="M400.183,299.367C398.017,299.367 396.092,299.067 394.408,298.467C392.725,297.867 391.3,297 390.133,295.867C388.967,294.733 388.075,293.333 387.458,291.667C386.842,290 386.533,288.117 386.533,286.017C386.533,283.95 386.825,282.042 387.408,280.292C387.992,278.542 388.85,277.025 389.983,275.742C391.117,274.458 392.5,273.467 394.133,272.767C395.767,272.067 397.617,271.717 399.683,271.717C401.683,271.717 403.467,272.042 405.033,272.692C406.6,273.342 407.908,274.317 408.958,275.617C410.008,276.917 410.775,278.508 411.258,280.392C411.742,282.275 411.917,284.433 411.783,286.867L393.433,287.067C393.567,289.3 394.183,290.983 395.283,292.117C396.517,293.45 398.15,294.117 400.183,294.117C401.117,294.117 401.908,293.992 402.558,293.742C403.208,293.492 403.742,293.167 404.158,292.767C404.575,292.367 404.908,291.917 405.158,291.417C405.408,290.917 405.617,290.417 405.783,289.917L412.033,291.267C411.733,292.5 411.292,293.608 410.708,294.592C410.125,295.575 409.35,296.425 408.383,297.142C407.417,297.858 406.258,298.408 404.908,298.792C403.558,299.175 401.983,299.367 400.183,299.367ZM393.633,283.067L405.133,283.067C405.133,282.151 405,281.353 404.733,280.675C404.267,279.522 403.592,278.673 402.708,278.131C401.825,277.588 400.85,277.317 399.783,277.317C398.517,277.317 397.4,277.647 396.433,278.308C395.467,278.969 394.717,279.927 394.183,281.183C393.95,281.778 393.767,282.406 393.633,283.067Z" style="fill-rule:nonzero;"/>
        </g>
    </g>
</svg>
